# xmcd
#
# Track frame offsets: 
#        182
#        13092
#        34232
#        48805
#        62160
#        88150
#        97837
#        117562
#        128645
#        145980
#        179610
#        194525
#        206900
#        218570
#        228107
#
# Disc length: 3136 seconds
#
# Revision: 9
# Processed by: cddbd v1.5.2PL0 Copyright (c) Steve Scherf et al.
# Submitted via: ExactAudioCopyFreeDBPlugin 1.0
#
DISCID=d80c3e0f
DTITLE=Various Artist - Back To Blues
DYEAR=1990
DGENRE=Blues
TTITLE0=Muddy Waters - I'm Your Hoochie Coochie Man
TTITLE1=Alexis Korners All Stars - Stormy Monday
TTITLE2=John Lee Hooker - Sugar Mama
TTITLE3=Howlin Wolf - Moanin' At Midnight
TTITLE4=Chuck Berry - Mean Old World
TTITLE5=Eric Clapton - Tribute To Elmore
TTITLE6=Michael Bloomfield - When I Get Home
TTITLE7=Bo Diddley - The Story Of Bo Diddley
TTITLE8=Howlin Wolf - Little Red Rooster
TTITLE9=Ten Years After - Love Like A Man
TTITLE10=Lightnin' Hopkins - Big Car Blues
TTITLE11=Bo Diddley - I'm A Man
TTITLE12=Sonny Boy Williamson - Bring It On Home
TTITLE13=The Fabulous Thunderbirds - That's Enough Of That Stuff
TTITLE14=Leo Kottke - Available Space
EXTD=YEAR: 1990
EXTT0=Muddy Waters
EXTT1=Alexis Korners All Stars
EXTT2=John Lee Hooker\n
EXTT3=Howlin' Wolf
EXTT4=
EXTT5=Eric Clapton\n
EXTT6=Michael Bloomfield
EXTT7=Bo Diddley
EXTT8=Howlin' Wolf\n
EXTT9=Ten Years After
EXTT10=Lightnin' Hopkins
EXTT11=Bo Diddley
EXTT12=Sonny Boy Williamson
EXTT13=The Fabulous Thunderbirds
EXTT14=Leo Kotte
PLAYORDER=
